<svg xmlns="http://www.w3.org/2000/svg" viewBox="0 0 512 512">
  <defs>
    <linearGradient id="g" x1="0" y1="0" x2="1" y2="1">
      <stop offset="0%" stop-color="#0ea5e9" />
      <stop offset="100%" stop-color="#3b82f6" />
    </linearGradient>
  </defs>
  <rect width="512" height="512" rx="96" fill="url(#g)"/>
  <g fill="#fff" transform="translate(96 96)">
    <path d="M160 0c88.366 0 160 71.634 160 160s-71.634 160-160 160S0 248.366 0 160 71.634 0 160 0zm0 40c-66.274 0-120 53.726-120 120s53.726 120 120 120 120-53.726 120-120S226.274 40 160 40z" opacity=".9"/>
    <path d="M152 80h16a8 8 0 018 8v24h24a8 8 0 010 16h-24v88c20.435-1.27 36-14.466 36-32h16c0 26.51-24.624 46.6-52 47.9V264h-16v-16.1c-33.208-1.88-60-24.837-60-55.9h16c0 21.82 19.612 37.98 44 39.78V128h-24a8 8 0 010-16h24V88a8 8 0 018-8z"/>
  </g>
</svg>


